<?xml version="1.0" standalone="no"?>
<svg xmlns:xlink="http://www.w3.org/1999/xlink" id="wave" style="transform:rotate(180deg); transition: 0.3s" viewBox="0 0 1440 300" version="1.1" xmlns="http://www.w3.org/2000/svg"><defs><linearGradient id="sw-gradient-0" x1="0" x2="0" y1="1" y2="0"><stop stop-color="rgba(240, 175, 143, 1)" offset="0%"/><stop stop-color="rgba(240, 175, 143, 1)" offset="100%"/></linearGradient></defs><path style="transform:translate(0, 0px); opacity:1" fill="url(#sw-gradient-0)" d="M0,150L120,170C240,190,480,230,720,220C960,210,1200,150,1440,150C1680,150,1920,210,2160,205C2400,200,2640,130,2880,95C3120,60,3360,60,3600,85C3840,110,4080,160,4320,155C4560,150,4800,90,5040,55C5280,20,5520,10,5760,20C6000,30,6240,60,6480,100C6720,140,6960,190,7200,220C7440,250,7680,260,7920,265C8160,270,8400,270,8640,245C8880,220,9120,170,9360,135C9600,100,9840,80,10080,85C10320,90,10560,120,10800,145C11040,170,11280,190,11520,180C11760,170,12000,130,12240,115C12480,100,12720,110,12960,125C13200,140,13440,160,13680,145C13920,130,14160,80,14400,85C14640,90,14880,150,15120,165C15360,180,15600,150,15840,135C16080,120,16320,120,16560,115C16800,110,17040,100,17160,95L17280,90L17280,300L17160,300C17040,300,16800,300,16560,300C16320,300,16080,300,15840,300C15600,300,15360,300,15120,300C14880,300,14640,300,14400,300C14160,300,13920,300,13680,300C13440,300,13200,300,12960,300C12720,300,12480,300,12240,300C12000,300,11760,300,11520,300C11280,300,11040,300,10800,300C10560,300,10320,300,10080,300C9840,300,9600,300,9360,300C9120,300,8880,300,8640,300C8400,300,8160,300,7920,300C7680,300,7440,300,7200,300C6960,300,6720,300,6480,300C6240,300,6000,300,5760,300C5520,300,5280,300,5040,300C4800,300,4560,300,4320,300C4080,300,3840,300,3600,300C3360,300,3120,300,2880,300C2640,300,2400,300,2160,300C1920,300,1680,300,1440,300C1200,300,960,300,720,300C480,300,240,300,120,300L0,300Z"/></svg>