<svg width="1920" height="1080" viewBox="0 0 1920 1080" xmlns="http://www.w3.org/2000/svg"><rect width="1920" height="1080" fill="#ffffff"/><path d="M 0,1080 C 0,1080 0,180 0,180 C 44.370921871314295,200.0328914760762 88.74184374262859,220.0657829521524 127,223 C 165.2581562573714,225.9342170478476 197.4035469008,211.76975966746653 234,223 C 270.5964530992,234.23024033253347 311.64396865417143,270.8551783779815 333,243 C 354.35603134582857,215.1448216220185 356.02057848251434,122.80952682060746 388,115 C 419.97942151748566,107.19047317939254 482.27371741577156,183.90671433958863 524,195 C 565.7262825842284,206.09328566041137 586.8845518543992,151.56361582103796 634,143 C 681.1154481456008,134.43638417896204 754.1880751666316,171.83882237625946 808,195 C 861.8119248333684,218.16117762374054 896.3631474790742,227.08109467392435 927,214 C 957.6368525209258,200.91890532607565 984.3593349170712,165.83679892804327 1014,172 C 1043.6406650829288,178.16320107195673 1076.19951285264,225.57170961390264 1097,216 C 1117.80048714736,206.42829038609736 1126.8426136723688,139.8763626163462 1184,143 C 1241.1573863276312,146.1236373836538 1346.430032457885,218.9228399207126 1411,221 C 1475.569967542115,223.0771600792874 1499.4372564960915,154.43227770080352 1511,122 C 1522.5627435039085,89.56772229919646 1521.8209415577487,93.34804927607325 1557,124 C 1592.1790584422513,154.65195072392675 1663.2789772729138,212.17552519490334 1718,219 C 1772.7210227270862,225.82447480509666 1811.063149350596,181.94984994431334 1842,167 C 1872.936850649404,152.05015005568666 1896.468425324702,166.02507502784334 1920,180 C 1920,180 1920,1080 1920,1080 Z" fill="#0d7bab" opacity="0.09999999999999999"/><path d="M 0,1080 C 0,1080 0,360 0,360 C 2.849037035172991,328.57189576534506 5.698074070345982,297.1437915306902 62,295 C 118.30192592965402,292.8562084693098 228.0567407537891,319.9967296425843 278,347 C 327.9432592462109,374.0032703574157 318.0749629144977,400.86928989897274 327,398 C 335.9250370855023,395.13071010102726 363.64340758822004,362.5261107615246 411,369 C 458.35659241177996,375.4738892384754 525.3514067326219,421.0262670549292 560,413 C 594.6485932673781,404.9737329450708 596.9509654812922,343.3688210187589 647,341 C 697.0490345187078,338.6311789812411 794.8447313422096,395.49844887003513 830,405 C 865.1552686577904,414.50155112996487 837.67010914987,376.6373835011005 858,362 C 878.32989085013,347.3626164988995 946.4748320583103,355.9520171255631 1004,363 C 1061.5251679416897,370.0479828744369 1108.430562616889,375.5545479966472 1159,386 C 1209.569437383111,396.4454520033528 1263.802917474134,411.829790887848 1293,406 C 1322.197082525866,400.170209112152 1326.3577674865755,373.12628845196076 1362,364 C 1397.6422325134245,354.87371154803924 1464.7660125795642,363.6650553043089 1497,346 C 1529.2339874204358,328.3349446956911 1526.5781821951682,284.2134903308037 1551,308 C 1575.4218178048318,331.7865096691963 1626.9212586397623,423.4809833724759 1681,422 C 1735.0787413602377,420.5190166275241 1791.7367832457821,325.8625761792926 1832,300 C 1872.2632167542179,274.1374238207074 1896.131608377109,317.0687119103537 1920,360 C 1920,360 1920,1080 1920,1080 Z" fill="#0d7bab" opacity="0.19999999999999998"/><path d="M 0,1080 C 0,1080 0,540 0,540 C 51.322065598397856,520.8490549095598 102.64413119679571,501.69810981911957 147,494 C 191.3558688032043,486.30189018088043 228.7455408112151,490.0566156330816 260,509 C 291.2544591887849,527.9433843669184 316.37370555834366,562.0754276485538 344,563 C 371.62629444165634,563.9245723514462 401.7596369554103,531.6416737727033 446,527 C 490.2403630445897,522.3583262272967 548.587746620015,545.3578772606336 601,532 C 653.412253379985,518.6421227393664 699.8893765645303,468.92681718476257 739,473 C 778.1106234354697,477.07318281523743 809.854747121864,534.934854000316 843,545 C 876.145252878136,555.065145999684 910.6916349480133,517.3337668139733 953,497 C 995.3083650519867,476.6662331860267 1045.3787130860826,473.73007874379095 1067,506 C 1088.6212869139174,538.269921256209 1081.7935127076564,605.7459182108629 1098,604 C 1114.2064872923436,602.2540817891371 1153.4472360832915,531.2862484127577 1195,525 C 1236.5527639167085,518.7137515872423 1280.4175429591774,577.1090881381065 1326,596 C 1371.5824570408226,614.8909118618935 1418.8825920799993,594.2773990348168 1457,580 C 1495.1174079200007,565.7226009651832 1524.0520887208247,557.7813157226263 1558,566 C 1591.9479112791753,574.2186842773737 1630.909053036701,598.5973380746776 1679,580 C 1727.090946963299,561.4026619253224 1784.3116991323711,499.8293319786635 1826,486 C 1867.6883008676289,472.1706680213365 1893.8441504338143,506.08533401066825 1920,540 C 1920,540 1920,1080 1920,1080 Z" fill="#0d7bab" opacity="0.3"/><path d="M 0,1080 C 0,1080 0,720 0,720 C 32.371010095051126,722.6329015336792 64.74202019010225,725.2658030673584 86,720 C 107.25797980989775,714.7341969326416 117.40292933464212,701.5696892642457 171,695 C 224.59707066535788,688.4303107357543 321.64626247132924,688.4554398756593 373,690 C 424.35373752867076,691.5445601243407 430.01202078004087,694.6085512331172 461,694 C 491.98797921995913,693.3914487668828 548.3056544085072,689.1103551918723 573,704 C 597.6943455914928,718.8896448081277 590.7653615859305,752.9500279993939 632,750 C 673.2346384140695,747.0499720006061 762.6328992477709,707.0895328105522 825,698 C 887.3671007522291,688.9104671894478 922.7030414229856,710.6918407583976 963,729 C 1003.2969585770144,747.3081592416024 1048.5549350602864,762.1431041558573 1058,738 C 1067.4450649397136,713.8568958441427 1041.0772183358683,650.7357426181734 1078,652 C 1114.9227816641317,653.2642573818266 1215.1361915962398,718.9139253714494 1272,724 C 1328.8638084037602,729.0860746285506 1342.378015279172,673.6085558960291 1372,666 C 1401.621984720828,658.3914441039709 1447.3517472870728,698.6518510444342 1487,716 C 1526.6482527129272,733.3481489555658 1560.2149955725372,727.7840399262341 1604,719 C 1647.7850044274628,710.2159600737659 1701.7882704227782,698.2119892506292 1727,712 C 1752.2117295772218,725.7880107493708 1748.6319227363488,765.3680030712488 1776,771 C 1803.3680772636512,776.6319969287512 1861.6840386318256,748.3159984643755 1920,720 C 1920,720 1920,1080 1920,1080 Z" fill="#0d7bab" opacity="0.39999999999999997"/><path d="M 0,1080 C 0,1080 0,900 0,900 C 49.68481568202567,878.2560165194723 99.36963136405134,856.5120330389447 136,861 C 172.63036863594866,865.4879669610553 196.20629022582034,896.2078843636937 214,904 C 231.79370977417966,911.7921156363063 243.80520773266733,896.6564295062808 282,884 C 320.1947922673327,871.3435704937192 384.57287884351035,861.1663976111829 426,858 C 467.42712115648965,854.8336023888171 485.9032768932914,858.6779800489875 534,853 C 582.0967231067086,847.3220199510125 659.814013583324,832.1216821928671 712,844 C 764.185986416676,855.8783178071329 790.8406687734122,894.835291179544 829,912 C 867.1593312265878,929.164708820456 916.8233113230275,924.5371530889564 949,904 C 981.1766886769725,883.4628469110436 995.866085934477,847.0160964646301 1027,844 C 1058.133914065523,840.9839035353699 1105.7123449390642,871.3984610525235 1156,868 C 1206.2876550609358,864.6015389474765 1259.2845343092672,827.3900593252758 1291,835 C 1322.7154656907328,842.6099406747242 1333.1495178238679,895.0413016463732 1370,925 C 1406.8504821761321,954.9586983536268 1470.117394395262,962.4447340892315 1498,965 C 1525.882605604738,967.5552659107685 1518.3809045950843,965.1797619967008 1537,954 C 1555.6190954049157,942.8202380032992 1600.3589872244004,922.8362179239651 1659,925 C 1717.6410127755996,927.1637820760349 1790.183146507314,951.4753663074385 1836,951 C 1881.816853492686,950.5246336925615 1900.9084267463431,925.2623168462808 1920,900 C 1920,900 1920,1080 1920,1080 Z" fill="#0d7bab" opacity="0.49999999999999994"/></svg>